<?xml version="1.0" encoding="UTF-8"?>
<svg id="Capa_1" data-name="Capa 1" xmlns="http://www.w3.org/2000/svg" viewBox="0 0 335.58 258.14">
  <defs>
    <style>
      .cls-1 {
        fill: #211915;
        stroke-width: 0px;
      }
    </style>
  </defs>
  <path class="cls-1" d="M201.78,0l-27.79,258.14h-45.34v-91.31c0-2.62-2.13-4.75-4.75-4.75h-50.59c-2.62,0-4.75,2.13-4.75,4.75v91.31H13.89c-7.67,0-13.89-6.22-13.89-13.89V14.32C0,6.65,6.22.43,13.89.43h54.66v92.58c0,2.62,2.13,4.75,4.75,4.75h50.59c2.62,0,4.75-2.13,4.75-4.75V.43L201.78,0Z"/>
  <path class="cls-1" d="M258.56,258.14l-60.97-75.76.03,75.76h-24.58l-44-198.06c0-40.05,19.74-60.09,59.24-60.09h70.67c39.49,0,59.24,20.03,59.24,60.09v61.36c0,35.83-15.52,55.58-46.55,59.24l63.93,77.45h-77.02ZM197.59,108.76c0,2.54.28,4.59.85,6.14.56,1.55,2.26,2.33,5.08,2.33h38.93c3.1,0,5.08-.63,5.92-1.91.85-1.27,1.27-3.17,1.27-5.71v-38.93c0-4.23-2.54-6.35-7.62-6.35h-38.51c-2.82,0-4.52.78-5.08,2.33-.57,1.55-.85,3.6-.85,6.14v35.97Z"/>
</svg>