<?xml version="1.0" encoding="UTF-8"?>
<svg id="Capa_1" data-name="Capa 1" xmlns="http://www.w3.org/2000/svg" version="1.1" viewBox="0 0 566.93 566.93">
  <defs>
    <style>
      .cls-1 {
        fill: #fff;
        stroke: #211915;
        stroke-width: 5px;
      }
    </style>
  </defs>
  <path class="cls-1" d="M333.03,127.47l-73.13,258.14h0v-91.31c0-2.62-2.13-4.75-4.75-4.75h-50.59c-2.62,0-4.75,2.13-4.75,4.75v91.31h-54.66c-7.67,0-13.89-6.22-13.89-13.89v-229.93c0-7.67,6.22-13.89,13.89-13.89h54.66v92.58c0,2.62,2.13,4.75,4.75,4.75h50.59c2.62,0,4.75-2.13,4.75-4.75v-92.58l73.13-.43Z"/>
  <path class="cls-1" d="M389.81,385.61l-60.97-75.76.03,75.76h-68.97l73.13-258.14h57.17c39.49,0,59.24,20.03,59.24,60.09v61.36c0,35.83-15.52,55.58-46.55,59.24l63.93,77.45h-77.02ZM328.84,236.22c0,2.54.28,4.59.85,6.14.56,1.55,2.26,2.33,5.08,2.33h38.93c3.1,0,5.08-.63,5.92-1.91.85-1.27,1.27-3.17,1.27-5.71v-38.93c0-4.23-2.54-6.35-7.62-6.35h-38.51c-2.82,0-4.52.78-5.08,2.33-.57,1.55-.85,3.6-.85,6.14v35.97Z"/>
</svg>