<?xml version="1.0" encoding="UTF-8"?>
<svg id="Capa_1" data-name="Capa 1" xmlns="http://www.w3.org/2000/svg" version="1.1" viewBox="0 0 566.9 566.9">
  <defs>
    <style>
      .cls-1 {
        fill: #fff;
        stroke-width: 0px;
      }
    </style>
  </defs>
  <path class="cls-1" d="M259.9,385.6h0v-91.3c0-2.6-2.1-4.8-4.8-4.8h-50.6c-2.6,0-4.8,2.1-4.8,4.8v91.3h-54.7c-7.7,0-13.9-6.2-13.9-13.9v-229.9c0-7.7,6.2-13.9,13.9-13.9h54.7v92.6c0,2.6,2.1,4.8,4.8,4.8h50.6c2.6,0,4.8-2.1,4.8-4.8v-92.6l130.3-.4c39.5,0,59.2,20,59.2,60.1v61.4c0,35.8-15.5,55.6-46.5,59.2l63.9,77.5h-77,0l-61-75.8v75.8s-68.9,0-68.9,0M328.8,236.2c0,2.5.3,4.6.9,6.1.6,1.6,2.3,2.3,5.1,2.3h38.9c3.1,0,5.1-.6,5.9-1.9.9-1.3,1.3-3.2,1.3-5.7v-38.9c0-4.2-2.5-6.4-7.6-6.4h-38.5c-2.8,0-4.5.8-5.1,2.3-.6,1.6-.9,3.6-.9,6.1v36h0Z"/>
</svg>